<svg width="25" height="25" viewBox="0 0 25 25" fill="none" xmlns="http://www.w3.org/2000/svg">
<path d="M10.8636 20.7542L14.5741 19.1792C14.6418 19.6353 14.5561 20.101 14.3306 20.5032C14.1051 20.9055 13.7524 21.2214 13.328 21.4016C12.9035 21.5818 12.4312 21.616 11.9852 21.4988C11.5392 21.3816 11.1447 21.1197 10.8636 20.7542ZM16.522 2.18126C18.6949 3.36876 20.3261 4.89272 21.3991 6.75106C22.472 8.60939 22.9772 10.7844 22.9189 13.2594C22.914 13.4666 22.8271 13.6634 22.6771 13.8065C22.5272 13.9496 22.3266 14.0272 22.1194 14.0224C21.9122 14.0176 21.7154 13.9306 21.5723 13.7807C21.4292 13.6308 21.3515 13.4301 21.3564 13.2229C21.4084 11.0229 20.9689 9.13126 20.0459 7.53231C19.123 5.93335 17.7032 4.60731 15.773 3.55314C15.5911 3.45368 15.4561 3.28603 15.3978 3.08707C15.3395 2.8881 15.3626 2.67412 15.4621 2.4922C15.5615 2.31028 15.7292 2.17532 15.9282 2.11701C16.1271 2.05869 16.3411 2.08181 16.523 2.18126H16.522ZM6.99073 6.78647C8.42402 6.14646 10.0496 6.08689 11.5259 6.6203C13.0021 7.1537 14.2142 8.23855 14.9074 9.64689L15.0095 9.86564L16.3511 12.8771L18.1199 14.4083C18.2168 14.4917 18.3001 14.5896 18.397 14.7469L18.4584 14.8656C18.5278 15.022 18.5657 15.1906 18.5699 15.3617C18.5741 15.5327 18.5445 15.7029 18.4829 15.8625C18.4213 16.0222 18.3288 16.1681 18.2107 16.2919C18.0927 16.4158 17.9514 16.5152 17.7949 16.5844L7.03656 21.3438C6.83839 21.4313 6.6215 21.468 6.40556 21.4505C6.18963 21.4331 5.98146 21.362 5.79992 21.2438C5.61838 21.1255 5.46921 20.9639 5.36593 20.7734C5.26265 20.583 5.20852 20.3698 5.20844 20.1531L5.2074 17.7125L3.91365 14.8042C3.58813 14.0759 3.40949 13.2906 3.38795 12.4931C3.36642 11.6957 3.50242 10.9019 3.78816 10.1571C4.07389 9.41233 4.50376 8.73124 5.05313 8.15285C5.60251 7.57446 6.26059 7.11014 6.98969 6.78647H6.99073ZM5.34073 14.1698L6.7699 17.3813V19.7531L16.7866 15.3208L15.0647 13.8313L13.5886 10.5156L13.5001 10.3261C12.9839 9.28325 12.084 8.48086 10.989 8.08719C9.89406 7.69353 8.6892 7.73919 7.62719 8.2146C7.08528 8.45459 6.59609 8.79921 6.18769 9.2287C5.77928 9.65819 5.45969 10.1641 5.24726 10.7174C5.03483 11.2707 4.93373 11.8605 4.94977 12.4529C4.96581 13.0454 5.09867 13.6288 5.34073 14.1698ZM16.2751 5.93231C17.2824 6.48126 18.0897 7.28022 18.6876 8.31668C19.2855 9.35314 19.5741 10.4521 19.5459 11.5979C19.5435 11.7005 19.5208 11.8016 19.4793 11.8955C19.4378 11.9893 19.3781 12.0741 19.3039 12.1449C19.2296 12.2157 19.1421 12.2712 19.0463 12.3081C18.9506 12.3451 18.8485 12.3629 18.7459 12.3604C18.6433 12.358 18.5422 12.3353 18.4484 12.2938C18.3546 12.2522 18.2698 12.1926 18.199 12.1184C18.1282 12.0441 18.0727 11.9566 18.0357 11.8608C17.9987 11.7651 17.981 11.663 17.9834 11.5604C18.0043 10.7042 17.7907 9.88856 17.3345 9.09793C16.8782 8.30626 16.2782 7.71251 15.5272 7.30418C15.3453 7.205 15.2102 7.03762 15.1517 6.83885C15.0932 6.64008 15.116 6.42621 15.2152 6.24429C15.3144 6.06236 15.4818 5.92729 15.6805 5.86878C15.8793 5.81028 16.0932 5.83313 16.2751 5.93231Z" fill="black"/>
</svg>
