<svg width="25" height="25" viewBox="0 0 25 25" fill="none" xmlns="http://www.w3.org/2000/svg">
<path d="M12.5 8.59376C11.464 8.59376 10.4705 9.00531 9.73789 9.73787C9.00533 10.4704 8.59378 11.464 8.59378 12.5C8.59378 13.536 9.00533 14.5296 9.73789 15.2621C10.4705 15.9947 11.464 16.4063 12.5 16.4063C13.536 16.4063 14.5296 15.9947 15.2622 15.2621C15.9947 14.5296 16.4063 13.536 16.4063 12.5C16.4063 11.464 15.9947 10.4704 15.2622 9.73787C14.5296 9.00531 13.536 8.59376 12.5 8.59376ZM9.89586 12.5C9.89586 11.8093 10.1702 11.147 10.6586 10.6586C11.147 10.1702 11.8094 9.89584 12.5 9.89584C13.1907 9.89584 13.8531 10.1702 14.3415 10.6586C14.8298 11.147 15.1042 11.8093 15.1042 12.5C15.1042 13.1907 14.8298 13.8531 14.3415 14.3414C13.8531 14.8298 13.1907 15.1042 12.5 15.1042C11.8094 15.1042 11.147 14.8298 10.6586 14.3414C10.1702 13.8531 9.89586 13.1907 9.89586 12.5ZM10.1532 22.6396C10.9235 22.8234 11.712 22.9162 12.5037 22.9162C13.2936 22.9153 14.0808 22.822 14.849 22.638C15.051 22.5894 15.233 22.4797 15.3704 22.3239C15.5078 22.168 15.5938 21.9737 15.6167 21.7672L15.7927 20.1677C15.8225 19.8817 15.9534 19.6157 16.1618 19.4175C16.3702 19.2194 16.6425 19.1022 16.9297 19.087C17.1207 19.0787 17.311 19.1144 17.486 19.1912L18.9479 19.8323C19.0751 19.8895 19.2127 19.9195 19.3521 19.9204C19.4915 19.9213 19.6295 19.893 19.7573 19.8375C19.886 19.7828 20.0011 19.7016 20.0959 19.599C21.1709 18.4403 21.9734 17.056 22.4448 15.5474C22.5065 15.3473 22.5046 15.1329 22.4393 14.9339C22.374 14.7349 22.2485 14.5611 22.0802 14.4365L20.7813 13.4781C20.6266 13.3658 20.5006 13.2184 20.4138 13.048C20.327 12.8776 20.2817 12.6891 20.2817 12.4979C20.2817 12.3067 20.327 12.1182 20.4138 11.9478C20.5006 11.7775 20.6266 11.6301 20.7813 11.5177L22.0761 10.5615C22.2449 10.4367 22.3707 10.2624 22.436 10.0629C22.5014 9.86333 22.503 9.64842 22.4407 9.44793C21.969 7.93912 21.1655 6.55507 20.0891 5.39741C19.9465 5.24496 19.76 5.14055 19.5556 5.09857C19.3511 5.05659 19.1386 5.07911 18.9474 5.16303L17.486 5.80678C17.3349 5.87501 17.1703 5.91095 17.0037 5.91095C16.7037 5.91036 16.4145 5.79905 16.1915 5.59836C15.9685 5.39767 15.8274 5.12173 15.7953 4.82345L15.6183 3.2297C15.5955 3.02061 15.508 2.82387 15.3679 2.66698C15.2278 2.5101 15.0422 2.40091 14.837 2.3547C14.0725 2.18367 13.2922 2.09272 12.5089 2.08334C11.7204 2.09244 10.9349 2.18321 10.1651 2.35418C9.96011 2.40016 9.77459 2.50907 9.63451 2.66567C9.49443 2.82228 9.40681 3.01875 9.38388 3.22761L9.2068 4.82241C9.17339 5.12116 9.03097 5.3971 8.8068 5.59741C8.57816 5.79168 8.28961 5.90209 7.98961 5.90991C7.82451 5.90991 7.66045 5.87553 7.50888 5.80886L6.05055 5.16511C5.85877 5.08044 5.64538 5.05761 5.44003 5.0998C5.23468 5.14199 5.04758 5.2471 4.90472 5.40053C3.82975 6.55845 3.0272 7.942 2.55576 9.45001C2.49348 9.65042 2.49512 9.86525 2.56045 10.0647C2.62578 10.2641 2.75156 10.4383 2.92034 10.563L4.21618 11.5193C4.4475 11.6905 4.61096 11.9379 4.67775 12.2178C4.74454 12.4977 4.71038 12.7923 4.58128 13.0495C4.49529 13.22 4.3704 13.3679 4.2167 13.4813L2.91982 14.4396C2.75129 14.5642 2.62566 14.7381 2.56034 14.9372C2.49502 15.1363 2.49324 15.3509 2.55524 15.5511C3.02582 17.0605 3.82845 18.4454 4.9042 19.6042C5.04635 19.7575 5.23276 19.8626 5.43749 19.905C5.64221 19.9474 5.85505 19.9249 6.04638 19.8406L7.51409 19.1964C7.66566 19.1297 7.8292 19.0953 7.99482 19.0953H7.99899C8.29786 19.0957 8.58615 19.206 8.80897 19.4052C9.03179 19.6044 9.17357 19.8786 9.20732 20.1755L9.38336 21.7677C9.40636 21.9745 9.49258 22.1691 9.63025 22.325C9.76792 22.4809 9.95034 22.5906 10.1526 22.6391L10.1532 22.6396ZM14.3532 21.4182C13.1344 21.6787 11.874 21.6787 10.6552 21.4182L10.4969 20.0318C10.4281 19.4166 10.1352 18.8482 9.67407 18.4352C9.21297 18.0221 8.61596 17.7932 7.99691 17.7922H7.9917C7.64644 17.7908 7.30472 17.8618 6.98857 18.0005L5.71461 18.5594C4.88818 17.6273 4.25763 16.5385 3.86045 15.3578L4.98805 14.5245C5.30591 14.2902 5.56429 13.9846 5.74236 13.6322C5.92043 13.2798 6.0132 12.8904 6.0132 12.4956C6.0132 12.1007 5.92043 11.7114 5.74236 11.359C5.56429 11.0066 5.30591 10.7009 4.98805 10.4667L3.86097 9.63334C4.25893 8.45398 4.88962 7.36652 5.71566 6.43543L6.98232 6.99376C7.29899 7.13439 7.6417 7.20626 7.98805 7.20574H7.99326C8.61378 7.20445 9.21213 6.9748 9.67417 6.5606C10.1362 6.14639 10.4296 5.5766 10.4985 4.95991L10.6547 3.57449C11.2657 3.45205 11.8868 3.38649 12.5099 3.37866C13.1282 3.38647 13.7443 3.45157 14.3506 3.57397L14.5068 4.95939C14.5738 5.57596 14.8659 6.14614 15.3272 6.56066C15.7885 6.97517 16.3866 7.20487 17.0068 7.20574C17.3566 7.21401 17.7036 7.1409 18.0203 6.9922L19.286 6.43438C20.1125 7.36539 20.7434 8.4531 21.1412 9.63282L20.0177 10.4625C19.6977 10.6958 19.4373 11.0013 19.2578 11.3543C19.0783 11.7073 18.9847 12.0977 18.9847 12.4938C18.9847 12.8898 19.0783 13.2802 19.2578 13.6332C19.4373 13.9862 19.6977 14.2917 20.0177 14.525L21.1453 15.3583C20.7472 16.5375 20.1167 17.6249 19.2912 18.5563L18.0203 17.999C17.6586 17.8385 17.2639 17.7658 16.8687 17.7868C16.4735 17.8079 16.0888 17.9221 15.7461 18.1202C15.4034 18.3182 15.1124 18.5945 14.8969 18.9265C14.6813 19.2584 14.5473 19.6366 14.5058 20.0302L14.3532 21.4182Z" fill="black"/>
</svg>
